<svg id="Layer_1" data-name="Layer 1" xmlns="http://www.w3.org/2000/svg" viewBox="0 0 412.35916 165.44">
  <path d="M147.88,137.46a73.85614,73.85614,0,0,1-5.63,5.42,78.21449,78.21449,0,1,1-4.77-121.77,78.83125,78.83125,0,0,1,6.38,5.29c-15.84,1.66-21.48,2.69-35.79,15.5-6.46,5.44-23.27,19.68-37.06,31.48,16.38,16.86,40.3,40.84,51.5,51.14C133,134.35,136.03,136.17,147.88,137.46Z" transform="translate(-8.13 -1.20001)" style="fill: none;stroke: #fff;stroke-miterlimit: 10;stroke-width: 9px"/>
  <path d="M122.51,124.52c-11.2-10.3-35.12-34.28-51.5-51.14,13.79-11.8,30.6-26.04,37.06-31.48,14.31-12.81,19.95-13.84,35.79-15.5a78.83125,78.83125,0,0,0-6.38-5.29H91.91v5.24l6.04.57c9.26,1.12,9.91,3.55,3.44,9.92-9.91,9.75-24.35,22.49-36.42,32.42-6.25,5.24-11.2,8.24-15.51,8.61V45.65c0-16.67,3.01-17.99,19.82-19.3V21.11H44.23A78.36176,78.36176,0,0,0,30.35,34.34c.66,2.67.79,6.3.79,11.31v73.07c0,6.66-.29,10.81-1.83,13.49a77.61973,77.61973,0,0,0,10.15,10.67H69.28v-5.24c-17.88-1.31-19.82-2.62-19.82-18.92V83.12c3.44-.19,7.11.19,12.06,5.43,19.62,19.86,37.07,38.03,53.67,54.33h27.06a73.85614,73.85614,0,0,0,5.63-5.42C136.03,136.17,133,134.35,122.51,124.52Z" transform="translate(-8.13 -1.20001)" style="fill: #fff;stroke: #fff;stroke-miterlimit: 10"/>
  <g>
    <path d="M200.64893,143.12891v-3.18555c6.76611-.91113,7.59863-2.04883,6.1416-6.37207-1.35352-4.4375-3.43555-10.127-5.6211-17.2959H178.68457c-1.66553,5.12109-3.22705,9.55859-4.68408,14.22363-2.29,7.39551-.833,8.30567,7.70312,9.44434v3.18555H157.65723v-3.18555c6.5581-.91113,8.22363-1.707,11.86718-11.94824L191.07178,68.2583l3.33105-.68262c6.55811,19.45752,13.74072,40.96241,20.29883,60.647,3.33105,9.89941,4.26807,10.80957,11.65869,11.7207v3.18555ZM190.23926,82.48145c-3.33106,9.78613-6.87061,20.13964-9.99317,29.1289h19.46582Z" transform="translate(-8.13 -1.20001)" style="fill: #fff;stroke: #fff;stroke-miterlimit: 10"/>
    <path d="M276.95312,87.0332a45.60181,45.60181,0,0,0-3.33105-9.44433c-1.665-3.07227-2.70557-3.86866-8.43115-3.86866H254.78125v55.41358c0,8.875.833,10.126,10.72217,10.80957v3.18555h-30.292v-3.18555c9.68066-.68359,10.51367-1.82129,10.51367-10.80957V73.72021h-9.47266c-5.7251,0-7.39062.68262-9.16064,4.0962-1.249,2.27588-2.08155,5.00634-3.43506,9.21679h-3.12256c.62451-6.94091,1.249-14.10937,1.561-20.48144h2.39454c1.56152,2.73095,2.70654,2.61719,5.62109,2.61719H271.332c2.915,0,3.74707-.45508,5.30859-2.61719h2.499c0,5.34765.416,13.54053.93652,20.13965Z" transform="translate(-8.13 -1.20001)" style="fill: #fff;stroke: #fff;stroke-miterlimit: 10"/>
    <path d="M311.72363,144.49414a7.29,7.29,0,0,1-4.89258-2.16211,11.0297,11.0297,0,0,1-2.498-5.12012c-4.16406,3.07227-9.26465,7.28223-12.49121,7.28223-7.39063,0-12.7002-6.71289-12.7002-13.99512,0-5.57617,2.81055-9.21679,8.53613-11.3789,6.34961-2.38965,14.15723-5.34766,16.44727-7.39551v-2.27637c0-8.07812-3.748-12.74316-9.16016-12.74316a5.8888,5.8888,0,0,0-4.89257,2.61719c-1.14551,1.59277-1.874,4.0957-2.81055,7.3955-.52051,1.82032-1.458,2.61719-3.01953,2.61719-1.97754,0-4.58008-2.27539-4.58008-5.00684,0-1.59277,1.35351-2.958,3.43555-4.55078,3.01855-2.38964,9.05664-6.59961,14.98925-7.96484a13.5735,13.5735,0,0,1,8.74414,3.07227c3.64356,3.41308,5.30957,7.28125,5.30957,13.19824V130.044c0,5.23339,1.76954,6.82714,3.64258,6.82714a7.77553,7.77553,0,0,0,3.748-1.252l1.041,3.18555ZM304.125,115.707c-2.29,1.251-7.28711,3.64063-9.68066,4.77832-3.95606,1.93457-6.35059,4.09668-6.35059,8.30664,0,6.03028,4.16406,8.76172,7.49512,8.76172,2.707,0,6.4541-1.82129,8.53613-4.09668Z" transform="translate(-8.13 -1.20001)" style="fill: #fff;stroke: #fff;stroke-miterlimit: 10"/>
    <path d="M323.38574,143.12891v-3.18555c6.66211-.68359,7.49414-1.252,7.49414-8.76172V76.67871c0-6.94092-.5205-7.62353-7.18261-8.53418v-2.958a68.54706,68.54706,0,0,0,15.40625-3.86865v69.86377c0,7.50977.625,8.07813,7.39062,8.76172v3.18555Z" transform="translate(-8.13 -1.20001)" style="fill: #fff;stroke: #fff;stroke-miterlimit: 10"/>
    <path d="M351.9082,143.12891v-3.18555c6.55762-.68359,7.28711-1.252,7.28711-8.98926V107.51465c0-7.05469-.3125-7.50977-6.55859-8.64746V96.13574A63.71855,63.71855,0,0,0,367.418,91.585V130.9541c0,7.73731.72949,8.30567,7.49512,8.98926v3.18555Zm10.82618-62.69532c-2.915,0-5.51758-2.84472-5.51758-6.03076,0-3.64111,2.60254-6.2583,5.62109-6.2583,2.915,0,5.30957,2.61719,5.30957,6.2583C368.14746,77.58887,365.75293,80.43359,362.73438,80.43359Z" transform="translate(-8.13 -1.20001)" style="fill: #fff;stroke: #fff;stroke-miterlimit: 10"/>
    <path d="M419.88379,128.56445c-1.35352,4.4375-3.43555,10.92285-4.47656,14.56446H380.43164l-.625-1.82032c9.05664-14.33691,17.9043-29.4707,26.44043-44.14843H396.14941c-7.39062,0-8.63964,1.25195-12.69921,11.03711l-2.915-1.02442c1.1455-4.32422,2.499-11.37793,3.22754-16.38476h2.29c.624,1.707,1.97754,2.38964,5.82911,2.38964h24.5664l.625,1.707c-8.22363,13.65332-17.38379,29.12793-26.02441,44.26171H402.1875c7.91113,0,10.30566-2.27539,14.98926-11.834Z" transform="translate(-8.13 -1.20001)" style="fill: #fff;stroke: #fff;stroke-miterlimit: 10"/>
  </g>
</svg>
